<svg xmlns="http://www.w3.org/2000/svg" xmlns:xlink="http://www.w3.org/1999/xlink" width="500" zoomAndPan="magnify" viewBox="0 0 375 374.999991" height="500" preserveAspectRatio="xMidYMid meet" version="1.0"><path fill="#ffffff" d="M 147.339844 4.078125 L 148.394531 4.183594 C 149.140625 4.765625 149.679688 5.308594 150.089844 6.171875 C 150.335938 6.828125 150.558594 7.488281 150.773438 8.152344 C 152.753906 13.84375 155.957031 18.457031 160.117188 22.769531 L 160.695312 23.390625 C 167.617188 30.664062 177.902344 35.179688 187.335938 37.980469 C 194.53125 40.070312 201.890625 41.371094 209.253906 42.707031 L 210.390625 42.910156 C 210.578125 42.945312 210.765625 42.980469 210.957031 43.015625 C 227.386719 45.996094 244.277344 49.398438 257.433594 60.417969 C 258.46875 61.328125 259.488281 62.25 260.492188 63.195312 C 261.136719 63.796875 261.75 64.3125 262.484375 64.804688 C 259.957031 59.199219 255.953125 54.480469 251.046875 50.792969 L 249.617188 49.933594 C 249.242188 49.417969 249.242188 49.417969 249.046875 48.792969 C 248.976562 47.945312 249 47.257812 249.207031 46.433594 C 249.617188 45.933594 249.617188 45.933594 250.457031 45.605469 C 251.851562 45.238281 253.183594 45.382812 254.601562 45.519531 L 255.472656 45.605469 C 266.371094 46.746094 276.4375 50.882812 285.332031 57.21875 C 287.238281 58.601562 289.035156 60.089844 290.792969 61.660156 L 291.257812 62.070312 C 299.980469 69.816406 306.179688 79.46875 310.523438 90.253906 C 311.214844 86.890625 311.402344 83.617188 311.367188 80.191406 L 311.359375 79.324219 C 311.34375 78.128906 311.332031 76.933594 311.308594 75.738281 C 311.292969 74.859375 311.285156 73.976562 311.277344 73.09375 L 311.257812 72.277344 C 311.253906 71.578125 311.265625 70.925781 311.378906 70.238281 C 311.890625 69.503906 311.890625 69.503906 312.523438 69.09375 C 313.578125 68.84375 313.578125 68.84375 314.183594 68.882812 C 315.023438 69.164062 315.421875 69.574219 316.027344 70.21875 C 316.492188 70.785156 316.945312 71.363281 317.382812 71.953125 L 317.792969 72.496094 C 319.835938 75.257812 321.703125 78.109375 323.390625 81.101562 L 323.730469 81.703125 C 330.417969 93.554688 333.722656 107.3125 333.753906 120.882812 L 333.757812 121.476562 C 333.761719 131.554688 333.761719 131.554688 332.539062 134 L 333.066406 134.109375 C 338.015625 135.273438 342.476562 138.199219 346.152344 141.636719 C 352.65625 147.871094 356.960938 155.6875 359.515625 164.296875 C 360.933594 169.332031 361.789062 174.433594 362.367188 179.625 L 362.4375 180.253906 C 363.019531 185.546875 363.203125 190.859375 363.234375 196.179688 C 363.238281 196.757812 363.246094 197.332031 363.257812 197.90625 C 363.273438 198.753906 363.28125 199.597656 363.285156 200.445312 L 363.304688 201.222656 C 363.300781 201.910156 363.277344 202.523438 363.132812 203.199219 C 362.464844 204.074219 362.464844 204.074219 361.703125 204.628906 C 360.851562 204.816406 360.851562 204.816406 359.988281 204.628906 C 359.441406 204.140625 358.941406 203.609375 358.488281 203.039062 C 355.953125 200.085938 352.984375 198.613281 349.410156 197.191406 L 349.472656 197.855469 C 350.59375 210.808594 347.890625 223.863281 342.480469 235.621094 C 339.542969 241.859375 335.761719 248.070312 330.824219 252.949219 C 330.25 253.238281 330.25 253.238281 329.484375 253.398438 L 328.535156 253.238281 C 326.753906 251.691406 325.589844 249.523438 324.40625 247.519531 L 323.84375 246.566406 C 322.433594 244.171875 321.132812 241.742188 319.957031 239.226562 C 319.417969 240.035156 319.136719 240.695312 318.816406 241.605469 L 318.480469 242.539062 L 318.117188 243.550781 C 313.4375 256.355469 307.042969 268.585938 298.511719 279.257812 C 298.296875 279.53125 298.078125 279.800781 297.855469 280.082031 C 296.800781 281.390625 295.707031 282.671875 294.582031 283.921875 L 293.945312 284.628906 C 293.59375 285.011719 293.238281 285.394531 292.875 285.769531 C 292.421875 286.242188 292.421875 286.242188 291.9375 286.976562 C 292.046875 288.191406 292.546875 289.226562 293.027344 290.335938 C 295.867188 297.265625 296.140625 305 295.160156 312.355469 C 293.875 320.964844 290.6875 329.480469 285.359375 336.425781 C 282.113281 340.484375 278.386719 344.0625 273.921875 346.738281 L 273.402344 347.058594 C 267.796875 350.460938 261.28125 351.929688 254.785156 352.207031 C 245.816406 352.390625 237.089844 349.847656 229.269531 345.546875 C 227.371094 344.460938 225.609375 343.214844 223.882812 341.878906 C 222.492188 342.589844 221.199219 343.367188 219.953125 344.308594 C 215.902344 347.308594 211.449219 349.789062 207.011719 352.171875 L 206.285156 352.566406 C 187.058594 362.980469 164.933594 369.589844 142.964844 369.671875 L 141.847656 369.679688 C 140.460938 369.683594 139.074219 369.6875 137.6875 369.683594 C 131.589844 369.683594 125.5625 369.625 119.515625 368.753906 L 118.90625 368.667969 C 97.804688 365.679688 78.519531 357.78125 61.632812 344.683594 C 58.777344 342.449219 56.011719 340.113281 53.332031 337.675781 C 52.875 337.261719 52.417969 336.851562 51.960938 336.441406 C 50.234375 334.910156 48.582031 333.320312 46.953125 331.6875 C 46.546875 331.277344 46.136719 330.871094 45.730469 330.464844 C 44.246094 328.976562 42.816406 327.464844 41.453125 325.863281 L 40.722656 325.03125 C 31.734375 314.601562 24.472656 302.613281 21.828125 288.972656 C 21.378906 286.511719 21.371094 284.058594 21.367188 281.5625 L 21.367188 280.921875 C 21.371094 277.804688 21.484375 274.847656 22.296875 271.824219 L 22.445312 271.257812 C 24.046875 265.316406 26.832031 259.894531 30.875 255.238281 L 31.46875 254.550781 C 33.1875 252.597656 35.027344 250.773438 36.878906 248.949219 C 36.0625 248.296875 35.203125 247.765625 34.300781 247.246094 C 27.660156 243.402344 22.238281 238.101562 18.292969 231.503906 C 14.144531 224.269531 12.488281 216.695312 12.503906 208.421875 C 12.523438 205.464844 12.695312 202.640625 13.433594 199.765625 L 13.605469 199.085938 C 15.347656 192.386719 18.289062 186.394531 22.867188 181.179688 L 23.492188 180.453125 C 28.214844 175.042969 34.308594 170.917969 41.078125 168.492188 L 41.679688 168.273438 C 42.695312 167.921875 43.589844 167.707031 44.667969 167.675781 C 45.699219 167.617188 46.59375 167.511719 47.527344 167.039062 C 48.71875 165.992188 49.152344 164.34375 49.65625 162.878906 C 49.976562 161.933594 50.285156 160.984375 50.589844 160.035156 C 51.25 158.011719 52.105469 156.101562 53.015625 154.175781 L 53.492188 153.175781 C 55.820312 148.300781 58.464844 143.675781 61.394531 139.144531 C 62.113281 138.015625 62.796875 136.871094 63.472656 135.714844 C 56.339844 136.335938 49.699219 138.242188 43.742188 142.292969 C 42.746094 143.011719 41.808594 143.773438 40.882812 144.582031 L 40.046875 145.300781 C 35.492188 149.300781 32.144531 154.261719 29.589844 159.738281 C 28.761719 161.496094 28.761719 161.496094 28.015625 162.023438 C 27.03125 162.023438 27.03125 162.023438 26.015625 161.738281 C 25.335938 161.113281 25.335938 161.113281 24.871094 160.308594 C 24.523438 158.796875 24.535156 157.289062 24.527344 155.746094 L 24.519531 154.910156 C 24.515625 154.015625 24.515625 153.121094 24.511719 152.230469 L 24.511719 151.308594 C 24.515625 146.722656 24.632812 142.242188 25.441406 137.71875 L 25.585938 136.890625 C 27.273438 127.539062 30.8125 118.6875 36.894531 111.335938 C 39.628906 108.105469 42.761719 104.753906 46.601562 102.832031 L 46.601562 102.261719 C 46.1875 101.902344 45.753906 101.558594 45.316406 101.226562 C 41.671875 98.300781 38.464844 94.902344 35.734375 91.109375 L 35.382812 90.625 C 29.410156 82.375 25.71875 72.53125 24.417969 62.460938 C 24.226562 60.59375 24.222656 58.722656 24.210938 56.851562 L 24.183594 55.71875 L 24.175781 54.628906 L 24.164062 53.644531 C 24.296875 52.792969 24.296875 52.792969 24.808594 52.121094 C 25.441406 51.652344 25.441406 51.652344 26.53125 51.4375 C 27.140625 51.46875 27.140625 51.46875 27.730469 51.652344 C 28.273438 52.136719 28.6875 52.675781 29.136719 53.25 C 31.65625 56.175781 35.285156 58.023438 38.875 59.285156 C 45.773438 61.511719 53.273438 61.203125 60.300781 59.773438 C 61.136719 59.585938 61.964844 59.390625 62.796875 59.1875 L 63.722656 58.960938 C 67.53125 58.023438 71.289062 56.898438 75.050781 55.785156 C 80.953125 54.039062 86.835938 52.574219 92.921875 51.652344 C 79.265625 46.246094 65.007812 44.71875 50.476562 46.359375 L 49.40625 46.46875 L 48.519531 46.574219 C 47.746094 46.503906 47.746094 46.503906 46.945312 45.996094 C 46.316406 45.359375 46.316406 45.359375 46.011719 44.394531 C 46.03125 43.359375 46.03125 43.359375 46.40625 42.554688 C 48.308594 40.105469 50.753906 38.113281 53.179688 36.210938 L 54.074219 35.496094 C 59.75 30.988281 66.339844 27.65625 73.195312 25.34375 L 73.828125 25.128906 C 76.203125 24.34375 78.605469 23.769531 81.058594 23.289062 L 81.746094 23.15625 C 85.804688 22.410156 89.820312 22.089844 93.941406 22.109375 L 94.617188 22.113281 C 108.191406 22.171875 121.210938 26.363281 132.953125 33.066406 C 137.382812 35.675781 141.53125 38.628906 145.546875 41.828125 C 146.203125 42.351562 146.867188 42.859375 147.539062 43.359375 L 147.398438 42.886719 C 144.203125 31.917969 143.269531 20.691406 144.679688 9.332031 L 144.753906 8.726562 C 145.152344 5.5625 145.152344 5.5625 145.820312 4.472656 C 146.394531 4.183594 146.394531 4.183594 147.339844 4.078125 M 114.105469 133.542969 C 113.605469 134.125 113.203125 134.722656 112.796875 135.375 L 112.328125 136.078125 C 111.855469 136.808594 111.390625 137.542969 110.9375 138.289062 L 110.503906 138.992188 C 106.957031 144.789062 103.371094 151.363281 101.789062 158.019531 C 101.746094 158.671875 101.746094 158.671875 102.074219 159.164062 C 102.789062 159.53125 102.789062 159.53125 103.644531 159.769531 C 104.175781 159.9375 104.699219 160.113281 105.21875 160.308594 C 105.554688 160.980469 105.550781 161.417969 105.558594 162.164062 L 105.570312 162.855469 L 105.503906 163.453125 L 104.933594 164.023438 C 103.753906 164.121094 102.71875 164 101.574219 163.734375 L 100.882812 163.574219 L 100.359375 163.453125 C 99.5625 166.832031 99.007812 170.1875 98.652344 173.640625 L 98.558594 174.519531 L 98.480469 175.300781 C 98.347656 176.089844 98.132812 176.742188 97.785156 177.464844 C 97.210938 177.75 97.210938 177.75 96.675781 177.753906 C 95.027344 177.597656 93.789062 177.179688 92.351562 176.375 L 91.726562 176.03125 C 87.945312 173.910156 84.574219 171.339844 81.484375 168.3125 C 81.207031 168.042969 80.925781 167.777344 80.648438 167.507812 C 79.210938 166.113281 77.941406 164.734375 76.890625 163.019531 L 76.339844 162.59375 C 74.746094 162.640625 73.339844 163.046875 71.855469 163.613281 L 71.261719 163.835938 C 69.277344 164.617188 67.527344 165.691406 65.757812 166.882812 C 66.535156 167.65625 67.414062 167.820312 68.441406 168.117188 C 76.050781 170.421875 82.335938 174.53125 87.898438 180.167969 C 92.957031 185.574219 96.351562 192.46875 98.070312 199.628906 C 98.945312 203.46875 99.070312 207.28125 99.214844 211.203125 L 107.792969 211.203125 L 108.757812 208.542969 C 111.171875 202.113281 114.664062 196.839844 119.230469 191.761719 L 119.75 191.175781 C 124.941406 185.683594 132.234375 181.722656 139.390625 179.535156 C 143.878906 178.246094 148.25 177.683594 152.917969 177.679688 L 153.511719 177.675781 C 158.125 177.683594 162.40625 178.242188 166.824219 179.597656 C 167.347656 179.757812 167.878906 179.898438 168.410156 180.035156 L 168.984375 179.75 C 163.609375 174.800781 157.285156 171.226562 150.164062 169.476562 C 147.847656 168.964844 145.585938 168.578125 143.207031 168.527344 C 142.644531 168.515625 142.644531 168.515625 142.066406 168.5 C 141.476562 168.488281 140.882812 168.472656 140.292969 168.464844 C 139.714844 168.453125 139.136719 168.4375 138.5625 168.421875 L 137.523438 168.398438 C 136.671875 168.3125 136.671875 168.3125 135.8125 167.742188 C 135.699219 167.152344 135.699219 167.152344 135.707031 166.472656 L 135.699219 165.792969 C 135.8125 165.167969 135.8125 165.167969 136.125 164.707031 C 136.671875 164.308594 136.671875 164.308594 137.558594 164.199219 L 138.648438 164.195312 L 139.242188 164.191406 C 139.875 164.191406 140.507812 164.195312 141.140625 164.203125 L 141.792969 164.207031 C 144.925781 164.230469 147.929688 164.34375 150.96875 165.167969 L 151.636719 165.339844 C 160.035156 167.542969 167.078125 171.714844 173.273438 177.75 C 174.6875 179.160156 175.867188 180.617188 176.941406 182.292969 C 178.371094 184.511719 179.769531 185.914062 181.972656 187.347656 C 183.734375 188.503906 185.203125 190.015625 186.710938 191.472656 L 187.289062 192.007812 C 192.441406 196.871094 196.261719 204.027344 198.273438 210.738281 C 199.832031 216.175781 199.832031 216.175781 199.882812 218.621094 C 199.921875 219.539062 200.023438 220.101562 200.4375 220.925781 C 201.574219 222.117188 202.988281 223.003906 204.351562 223.910156 C 205.21875 224.496094 206.066406 225.113281 206.910156 225.730469 C 207.554688 226.203125 208.203125 226.671875 208.851562 227.136719 L 209.507812 227.605469 L 210.15625 228.074219 C 212.8125 229.984375 215.460938 231.902344 218.09375 233.847656 C 219.957031 235.222656 221.832031 236.585938 223.71875 237.925781 C 227.617188 240.699219 231.476562 243.53125 235.320312 246.375 C 238.917969 239.804688 238.6875 230.003906 238.546875 222.667969 C 238.339844 214.371094 236.707031 206.21875 234.175781 198.335938 L 233.941406 197.597656 C 231.078125 188.679688 226.8125 180.183594 221.308594 172.601562 L 220.796875 172.679688 C 209.519531 174.363281 198.15625 173.65625 187.46875 169.480469 C 179.339844 166.148438 172.125 161.296875 165.835938 155.160156 C 165.550781 154.589844 165.550781 154.589844 165.460938 153.625 L 165.550781 152.585938 C 166.007812 151.972656 166.007812 151.972656 166.695312 151.441406 C 167.570312 151.214844 167.570312 151.214844 168.660156 151.066406 C 179.628906 149.375 190.046875 145.707031 199.578125 140.003906 C 198.65625 139.667969 197.902344 139.757812 196.949219 139.917969 L 196.359375 140.027344 L 195.082031 140.246094 L 194.398438 140.367188 C 171.335938 144.382812 147.839844 144.640625 125.566406 136.628906 C 123.542969 135.875 121.582031 134.980469 119.6875 133.941406 C 118.269531 133.210938 116.988281 132.898438 115.382812 132.964844 C 114.644531 133.097656 114.644531 133.097656 114.109375 133.542969 M 66.046875 139.71875 C 62.816406 145.664062 62.816406 145.664062 59.761719 151.699219 C 59.417969 152.402344 59.070312 153.105469 58.722656 153.808594 C 55.40625 159.691406 55.40625 159.691406 53.75 166.027344 L 62.898438 166.597656 L 62.898438 163.738281 C 65.476562 161.019531 69.734375 159.597656 73.195312 158.304688 C 72.808594 157.28125 72.347656 156.316406 71.847656 155.34375 C 69.269531 150.335938 67.671875 145.171875 66.332031 139.71875 Z M 234.925781 168.046875 C 232.867188 169.042969 230.757812 169.800781 228.582031 170.511719 L 227.871094 170.75 L 227.230469 170.957031 L 226.742188 171.171875 L 226.457031 171.746094 C 226.882812 172.496094 227.328125 173.234375 227.796875 173.960938 C 231.320312 179.597656 234.476562 185.5 236.75 191.761719 C 237.039062 190.785156 236.96875 190.121094 236.757812 189.121094 C 235.289062 182.027344 235.886719 174.207031 237.320312 167.167969 C 236.429688 167.167969 235.714844 167.65625 234.925781 168.046875 M 52.035156 171.171875 C 46.011719 186.242188 45.359375 205.304688 47.171875 221.210938 L 47.285156 222.21875 C 48.027344 228.726562 49.089844 235.25 50.988281 241.527344 C 51.207031 242.511719 51.246094 243.371094 51.175781 244.371094 C 50.238281 245.597656 49.085938 246.238281 47.746094 246.945312 L 47.746094 247.230469 C 54.558594 248.660156 61.441406 248.230469 68.046875 246.089844 C 70.675781 245.261719 70.675781 245.261719 72.96875 243.816406 C 73.449219 243.261719 73.917969 242.695312 74.375 242.121094 C 75.511719 240.820312 76.765625 239.9375 78.339844 239.226562 C 78.851562 239.109375 79.363281 239 79.878906 238.902344 C 81.097656 238.609375 81.867188 238.136719 82.785156 237.273438 C 83.527344 236.519531 84.230469 235.738281 84.917969 234.9375 L 85.300781 234.492188 C 88.417969 230.804688 90.757812 226.617188 92.351562 222.070312 L 92.679688 221.15625 C 94.65625 215.246094 95.058594 208.628906 93.9375 202.5 C 92.4375 195.34375 89.179688 188.941406 84.34375 183.46875 C 79.734375 178.453125 74.042969 174.789062 67.546875 172.710938 C 62.617188 171.191406 57.171875 170.21875 52.035156 171.171875 M 36.292969 176.210938 C 34.550781 177.234375 32.988281 178.449219 31.445312 179.75 C 31.199219 179.960938 30.949219 180.167969 30.691406 180.382812 C 25.292969 185.078125 21.53125 190.8125 19.207031 197.566406 C 18.113281 200.875 17.402344 204.285156 17.4375 207.773438 C 20.226562 209.410156 23.066406 210.925781 25.953125 212.390625 C 27.121094 212.988281 28.292969 213.585938 29.460938 214.183594 L 30.144531 214.535156 C 31.8125 215.386719 33.472656 216.246094 35.128906 217.121094 L 35.746094 217.445312 C 36.734375 217.96875 37.722656 218.496094 38.707031 219.03125 L 39.316406 219.359375 C 39.691406 219.5625 40.070312 219.765625 40.441406 219.972656 C 41.328125 220.480469 41.328125 220.480469 42.3125 220.640625 L 42.25 219.664062 C 41.375 204.277344 42.191406 189.015625 46.183594 174.082031 C 46.355469 173.378906 46.355469 173.378906 46.316406 172.316406 C 43.011719 172.316406 39.121094 174.621094 36.292969 176.210938 M 261.625 178.320312 L 261.914062 178.894531 Z M 261.339844 178.894531 C 256.519531 189.023438 254.117188 199.449219 254.039062 210.65625 L 254.03125 211.257812 C 254.023438 211.800781 254.019531 212.34375 254.015625 212.886719 C 253.90625 213.777344 253.90625 213.777344 253.535156 214.457031 L 253.046875 214.921875 C 252.066406 215.144531 251.695312 215.199219 250.761719 214.921875 C 246.816406 212.367188 243.71875 207.3125 241.578125 203.199219 C 241.101562 202.253906 240.632812 201.300781 240.179688 200.339844 C 239.835938 201.152344 239.835938 201.152344 240.003906 201.847656 L 240.203125 202.625 L 240.421875 203.507812 L 240.664062 204.464844 C 241.335938 207.246094 241.875 210.015625 242.273438 212.847656 L 242.410156 213.816406 C 243.945312 225.171875 243.199219 237.0625 239.871094 248.046875 C 239.582031 248.882812 239.582031 248.882812 239.609375 249.519531 C 240.15625 249.949219 240.714844 250.363281 241.289062 250.753906 C 241.660156 251.011719 242.03125 251.269531 242.398438 251.53125 L 243 251.949219 C 244.046875 252.683594 245.078125 253.433594 246.113281 254.183594 L 248.097656 255.621094 C 248.746094 256.085938 249.394531 256.554688 250.039062 257.019531 C 252.472656 258.769531 254.894531 260.539062 257.308594 262.320312 C 259.472656 263.917969 261.65625 265.496094 263.839844 267.070312 C 264.726562 267.707031 265.605469 268.347656 266.488281 268.984375 C 267.136719 269.453125 267.785156 269.921875 268.4375 270.386719 C 269.175781 270.917969 269.90625 271.457031 270.632812 272.007812 C 272.53125 273.410156 274.253906 274.183594 276.507812 274.867188 C 281.125 276.355469 285.230469 279.464844 288.503906 282.972656 C 289.941406 281.90625 290.992188 280.652344 292.105469 279.257812 C 292.777344 278.421875 293.472656 277.605469 294.171875 276.792969 C 298.652344 271.414062 302.273438 265.34375 305.660156 259.242188 L 306.007812 258.625 C 309.074219 253.148438 311.460938 247.351562 313.648438 241.476562 L 313.882812 240.855469 C 314.402344 239.460938 314.902344 238.0625 315.382812 236.652344 L 315.601562 236.011719 C 316.59375 233.25 316.59375 233.25 316.804688 230.367188 C 316.722656 229.980469 316.632812 229.597656 316.527344 229.21875 L 316.371094 228.570312 C 316.207031 227.90625 316.023438 227.25 315.828125 226.589844 L 315.640625 225.925781 C 315.300781 224.726562 314.929688 223.535156 314.523438 222.355469 C 313.621094 223.414062 313.132812 224.609375 312.589844 225.875 L 312.277344 226.589844 C 311.941406 227.355469 311.605469 228.125 311.273438 228.894531 L 310.582031 230.484375 C 310 231.8125 309.425781 233.140625 308.847656 234.46875 C 308.445312 235.398438 308.042969 236.324219 307.636719 237.25 C 307.210938 238.230469 306.785156 239.210938 306.359375 240.191406 L 306.121094 240.738281 C 305.902344 241.242188 305.683594 241.75 305.464844 242.253906 L 305.09375 243.101562 C 304.785156 243.820312 304.785156 243.820312 304.515625 244.660156 C 303.53125 244.804688 302.90625 244.851562 301.945312 244.660156 C 298.828125 242.886719 296.527344 239.59375 294.707031 236.578125 C 291.265625 230.621094 289.640625 224.191406 289.636719 217.324219 C 289.640625 216.90625 289.644531 216.484375 289.648438 216.066406 C 288.1875 217.082031 287.242188 218.402344 286.199219 219.816406 L 285.628906 220.585938 C 281.171875 226.640625 277.050781 233.136719 273.882812 239.96875 L 273.351562 240.941406 C 272.382812 241.234375 271.683594 241.246094 270.6875 241.191406 L 270.203125 240.941406 L 269.96875 240.347656 C 269.621094 239.480469 269.1875 238.742188 268.695312 237.949219 C 262.523438 227.894531 259.15625 215.53125 258.765625 203.769531 C 258.554688 195.890625 259.339844 188.21875 261.445312 180.613281 L 261.625 179.75 Z M 131.695312 188.472656 C 125.277344 192.320312 119.988281 197.902344 116.304688 204.390625 C 115.605469 205.683594 114.96875 207 114.367188 208.34375 L 113.960938 209.246094 C 111.917969 214.15625 111.15625 219.328125 111.152344 224.605469 L 111.152344 225.207031 C 111.160156 230.035156 111.859375 234.398438 113.511719 238.941406 L 113.730469 239.542969 C 116.332031 246.542969 120.828125 252.59375 126.511719 257.421875 C 131.128906 261.214844 136.644531 263.949219 142.390625 265.53125 L 143.050781 265.714844 C 149.832031 267.503906 157.488281 267.246094 164.234375 265.457031 C 170.074219 263.800781 175.507812 260.875 180.132812 256.953125 L 180.839844 256.359375 C 186.558594 251.359375 190.664062 245.179688 193.136719 238.011719 C 195.492188 230.867188 195.863281 223.375 194.390625 215.996094 C 192.851562 208.988281 189.636719 202.457031 184.820312 197.125 C 184.125 196.375 183.417969 195.640625 182.707031 194.90625 L 182.175781 194.328125 C 177.648438 189.53125 171.273438 186.246094 165.03125 184.324219 C 153.808594 181.035156 141.8125 182.65625 131.695312 188.472656 M 237.035156 191.761719 L 237.320312 192.332031 Z M 17.722656 214.0625 C 18.15625 220.09375 20.515625 225.980469 23.886719 230.96875 C 24.304688 231.535156 24.726562 232.09375 25.15625 232.648438 L 25.796875 233.484375 C 29.882812 238.625 34.925781 242.191406 40.777344 245.0625 C 41.460938 245.289062 41.460938 245.289062 42.152344 245.050781 C 43.011719 244.589844 43.765625 244.0625 44.546875 243.480469 L 45.390625 242.851562 L 46.03125 242.371094 C 45.816406 240.332031 45.375 238.390625 44.878906 236.40625 C 44.519531 234.917969 44.269531 233.5 44.1875 231.96875 C 44.023438 229.367188 44.023438 229.367188 43.171875 226.929688 C 41.664062 225.46875 39.640625 224.808594 37.703125 224.101562 C 36.496094 223.636719 35.382812 223.03125 34.253906 222.410156 C 33.8125 222.175781 33.371094 221.941406 32.925781 221.707031 C 32.695312 221.582031 32.460938 221.460938 32.222656 221.332031 C 30.351562 220.347656 28.472656 219.382812 26.59375 218.410156 C 25.074219 217.625 23.554688 216.835938 22.046875 216.03125 L 21.28125 215.625 C 20.8125 215.375 20.347656 215.128906 19.882812 214.875 C 18.859375 214.277344 18.859375 214.277344 17.722656 214.0625 M 98.640625 216.351562 L 98.054688 219.015625 C 96.453125 225.847656 93.609375 231.566406 89.265625 237.070312 C 88.859375 237.59375 88.457031 238.121094 88.0625 238.652344 L 88.890625 239.03125 C 93.9375 241.351562 93.9375 241.351562 95.496094 242.371094 C 96.070312 243.230469 96.070312 243.230469 96.160156 244.070312 C 96.070312 244.945312 96.070312 244.945312 95.765625 245.625 L 95.210938 246.089844 C 94.28125 246.199219 93.519531 246.214844 92.640625 245.859375 C 92.035156 245.542969 91.441406 245.203125 90.851562 244.855469 C 88.480469 243.539062 86.355469 242.664062 83.613281 242.53125 C 81.976562 242.585938 80.628906 243.015625 79.199219 243.800781 C 77.824219 244.707031 76.871094 245.808594 76.054688 247.234375 C 75.292969 248.75 75.066406 250.222656 75.105469 251.898438 C 75.355469 254.042969 76.289062 256.023438 77.542969 257.761719 C 79.769531 260.464844 82.582031 262.179688 85.773438 263.53125 C 87.414062 264.144531 89.070312 264.707031 90.738281 265.246094 L 91.671875 265.546875 L 92.507812 265.8125 C 93.210938 266.105469 93.210938 266.105469 93.726562 266.507812 C 94.066406 266.960938 94.066406 266.960938 94.191406 267.945312 C 94.066406 268.964844 94.066406 268.964844 93.636719 269.679688 L 92.921875 270.105469 C 87.976562 269.835938 82.785156 267.238281 78.625 264.675781 C 76.042969 262.933594 73.9375 260.828125 72.515625 258.042969 C 71.628906 256.191406 71.113281 254.453125 70.871094 252.414062 L 70.796875 251.816406 C 70.734375 251.339844 70.679688 250.859375 70.621094 250.378906 L 70.070312 250.523438 C 61.746094 252.6875 53.453125 253.597656 45.046875 251.300781 C 44.242188 251.089844 43.53125 250.945312 42.695312 250.992188 C 39.835938 252.035156 37.214844 255.207031 35.277344 257.496094 C 30.703125 263.070312 27.765625 269.046875 26.417969 276.140625 C 25.921875 280.851562 25.984375 285.804688 27.15625 290.410156 L 27.320312 291.085938 C 30.546875 304.304688 38.761719 315.59375 47.894531 325.40625 C 48.351562 325.902344 48.808594 326.398438 49.261719 326.898438 C 50.71875 328.492188 52.160156 330.054688 53.820312 331.441406 C 54.347656 331.894531 54.835938 332.371094 55.324219 332.871094 C 68.417969 346.191406 86.339844 355.671875 104.125 360.738281 C 108.851562 362.019531 113.652344 362.988281 118.496094 363.699219 L 119.367188 363.824219 C 125.503906 364.65625 131.648438 364.859375 137.832031 364.839844 L 138.957031 364.839844 C 144.539062 364.824219 150.011719 364.691406 155.542969 363.894531 L 156.746094 363.726562 C 179.683594 360.488281 201.550781 351.492188 220.355469 337.996094 L 220.871094 337.628906 C 221.34375 337.289062 221.34375 337.289062 221.871094 336.777344 C 222.453125 336.445312 222.453125 336.445312 223.527344 336.292969 C 224.222656 336.324219 224.679688 336.414062 225.308594 336.726562 C 225.902344 337.128906 226.464844 337.554688 227.027344 338 C 227.457031 338.316406 227.886719 338.636719 228.316406 338.949219 L 228.96875 339.425781 C 235.238281 343.863281 242.910156 346.480469 250.511719 347.203125 C 256.882812 347.65625 263.066406 346.652344 268.820312 343.855469 C 271.324219 342.605469 273.515625 341.125 275.636719 339.304688 L 276.332031 338.726562 C 281.847656 333.984375 285.632812 327.632812 288.070312 320.824219 C 290.53125 313.628906 291.464844 305.46875 290.183594 297.929688 C 289.292969 293.582031 287.640625 289.453125 284.699219 286.082031 C 284.257812 285.613281 283.808594 285.148438 283.359375 284.691406 L 282.773438 284.09375 C 279.863281 281.328125 276.320312 279.519531 272.492188 278.398438 L 271.808594 278.1875 C 267.878906 277.183594 263.203125 277.625 259.339844 278.683594 C 255.875 279.6875 252.128906 281.054688 249.203125 283.203125 C 248.472656 283.546875 248.472656 283.546875 247.390625 283.519531 C 246.425781 283.378906 246.132812 283.21875 245.300781 282.609375 C 245.019531 282.328125 244.742188 282.039062 244.46875 281.75 L 244.011719 281.285156 C 243.535156 280.796875 243.0625 280.304688 242.59375 279.8125 C 242.277344 279.488281 241.960938 279.164062 241.644531 278.839844 C 240.417969 277.585938 239.207031 276.328125 238.070312 274.992188 C 236.472656 273.128906 234.671875 271.441406 232.925781 269.714844 C 232.195312 268.992188 231.46875 268.269531 230.738281 267.542969 L 230.230469 267.042969 C 229.0625 265.882812 229.0625 265.882812 228.742188 265.246094 C 228.644531 263.933594 228.65625 263.175781 229.152344 261.945312 C 229.339844 261.597656 229.53125 261.25 229.726562 260.902344 C 230.722656 259.027344 231.621094 257.121094 232.460938 255.167969 L 232.804688 254.382812 C 232.910156 254.140625 233.015625 253.894531 233.121094 253.644531 L 233.40625 252.988281 C 233.664062 252.304688 233.664062 252.304688 233.605469 251.234375 C 233.054688 250.753906 232.535156 250.367188 231.925781 249.964844 C 231.554688 249.710938 231.183594 249.457031 230.816406 249.203125 L 230.214844 248.796875 C 229.164062 248.074219 228.132812 247.320312 227.101562 246.570312 L 225.78125 245.617188 L 225.117188 245.136719 C 224.46875 244.667969 223.820312 244.203125 223.175781 243.734375 C 220.742188 241.984375 218.320312 240.214844 215.90625 238.433594 C 213.742188 236.835938 211.5625 235.261719 209.378906 233.6875 C 208.703125 233.203125 208.035156 232.71875 207.363281 232.234375 C 204.082031 229.8125 204.082031 229.8125 200.722656 227.503906 L 200.4375 227.503906 L 200.359375 228.089844 C 199.53125 234.210938 198.3125 239.949219 195.574219 245.515625 L 195.308594 246.0625 C 193.21875 250.320312 190.429688 253.996094 187.28125 257.527344 L 186.683594 258.199219 C 181.957031 263.199219 175.636719 266.785156 169.269531 269.25 L 169.269531 269.535156 L 169.765625 269.570312 C 176.03125 270.023438 181.730469 270.921875 187.105469 274.359375 C 190.535156 276.789062 193.085938 279.574219 194.949219 283.351562 C 196.839844 287.9375 197.191406 292.566406 196.628906 297.480469 C 195.71875 303.605469 192.878906 309.363281 189.105469 314.226562 C 184.722656 319.671875 179.320312 323.859375 173.273438 327.292969 L 172.773438 327.585938 C 159.683594 335.195312 143.414062 337.304688 128.515625 337.394531 C 127.488281 337.394531 126.460938 337.394531 125.429688 337.390625 L 124.351562 337.390625 C 119.164062 337.378906 114.066406 337.28125 108.9375 336.445312 L 108.003906 336.300781 C 97.605469 334.648438 87.230469 331.007812 78.878906 324.453125 C 77.414062 323.253906 76.007812 322.003906 74.625 320.71875 L 73.984375 320.132812 C 69.289062 315.683594 66.039062 309.660156 64.042969 303.5625 C 62.300781 297.445312 61.917969 290.890625 63.472656 284.691406 C 63.75 283.859375 63.75 283.859375 64.042969 283.261719 C 64.710938 282.925781 65.261719 282.878906 66 282.890625 C 67.304688 283.066406 68.5 283.644531 69.710938 284.136719 C 83.125 289.363281 98.230469 291.085938 112.476562 288.96875 C 122.03125 287.417969 130.3125 283.824219 138.9375 279.5625 C 140.335938 278.871094 141.734375 278.179688 143.136719 277.496094 C 146.625 275.792969 150.160156 274.292969 153.796875 272.933594 C 154.46875 272.675781 154.46875 272.675781 155.257812 272.109375 L 154.769531 272.097656 C 145.230469 271.820312 136.367188 269.890625 128.09375 264.960938 C 121.195312 260.660156 115.535156 254.589844 111.652344 247.46875 C 107.152344 238.957031 105.785156 230.1875 106.078125 220.640625 C 106.136719 219.203125 106.238281 217.78125 106.363281 216.351562 Z M 237.894531 254.667969 L 237.597656 255.308594 L 237.179688 256.222656 L 236.714844 257.238281 C 236.335938 258.054688 235.941406 258.867188 235.535156 259.671875 L 235.210938 260.328125 C 235 260.753906 234.785156 261.179688 234.566406 261.605469 C 234.230469 262.261719 234.230469 262.261719 233.890625 263.246094 C 234.191406 264.058594 234.632812 264.636719 235.21875 265.261719 C 235.371094 265.425781 235.527344 265.589844 235.683594 265.761719 L 236.191406 266.292969 L 236.722656 266.859375 C 238.914062 269.171875 241.175781 271.417969 243.433594 273.664062 L 244.742188 274.96875 C 245.796875 276.019531 246.847656 277.066406 247.902344 278.113281 C 248.882812 277.726562 249.835938 277.308594 250.792969 276.867188 C 254.679688 275.09375 258.804688 273.753906 263.054688 273.253906 L 262.769531 272.394531 C 262.082031 271.867188 261.378906 271.359375 260.660156 270.875 C 260.214844 270.566406 259.769531 270.257812 259.324219 269.949219 L 258.617188 269.460938 C 257.46875 268.652344 256.339844 267.816406 255.210938 266.980469 C 252.8125 265.203125 250.398438 263.449219 247.972656 261.707031 C 247.09375 261.074219 246.21875 260.441406 245.339844 259.804688 C 244.492188 259.191406 243.644531 258.578125 242.792969 257.964844 L 241.574219 257.085938 C 241.007812 256.679688 240.445312 256.269531 239.878906 255.863281 L 239.367188 255.496094 C 238.972656 255.214844 238.578125 254.9375 238.179688 254.667969 Z M 160.117188 275.539062 L 160.328125 276.339844 C 163.960938 290.394531 164.296875 304.589844 160.546875 318.6875 C 159.722656 321.664062 158.746094 324.566406 157.628906 327.445312 C 157.226562 328.351562 157.226562 328.351562 157.257812 329.011719 C 165.378906 327.378906 173.34375 322.972656 179.5625 317.574219 L 180.375 316.875 C 185.210938 312.640625 189.164062 307.390625 191.285156 301.273438 C 192.53125 297.382812 193.066406 293.445312 192.367188 289.378906 C 191.558594 285.847656 189.910156 282.882812 187.460938 280.238281 C 184.128906 277.078125 180.136719 275.523438 175.75 274.449219 C 170.75 273.527344 164.914062 273.789062 160.117188 275.539062 M 142.03125 283.007812 C 138.554688 284.769531 135.050781 286.425781 131.472656 287.984375 L 130.648438 288.347656 C 129.808594 288.691406 129.808594 288.691406 128.855469 289 C 127.953125 289.308594 127.179688 289.601562 126.378906 290.121094 C 125.855469 291.070312 125.796875 291.949219 125.753906 293.019531 L 125.683594 293.785156 C 125.640625 294.289062 125.601562 294.792969 125.574219 295.296875 C 125.523438 296.070312 125.453125 296.835938 125.375 297.601562 C 125.226562 299.203125 125.183594 300.792969 125.175781 302.402344 L 125.171875 303.28125 C 125.167969 303.894531 125.167969 304.507812 125.167969 305.121094 C 125.164062 306.03125 125.15625 306.941406 125.144531 307.855469 C 125.101562 316.5625 126.726562 324.789062 129.523438 333.011719 C 131.871094 333.042969 134.191406 332.972656 136.53125 332.800781 L 137.523438 332.726562 C 141.265625 332.425781 144.980469 331.914062 148.683594 331.296875 L 149.445312 331.191406 C 150.089844 331.085938 150.652344 330.972656 151.253906 330.726562 C 151.910156 330.03125 151.910156 330.03125 152.273438 329.082031 L 152.507812 328.554688 C 152.773438 327.949219 153.015625 327.335938 153.257812 326.722656 L 153.535156 326.023438 C 158.558594 313.378906 160.085938 299.851562 158.117188 286.40625 C 157.5625 283.203125 156.796875 280.070312 155.832031 276.96875 C 151.640625 276.96875 145.769531 281.113281 142.03125 283.007812 M 67.1875 288.121094 C 66.34375 294.179688 67.210938 299.898438 69.476562 305.5625 C 71.425781 310.1875 74.289062 313.992188 77.769531 317.574219 L 78.238281 318.058594 C 82.59375 322.515625 88.488281 326.078125 94.351562 328.152344 L 94.925781 328.152344 C 94.773438 326.867188 94.523438 325.675781 94.164062 324.4375 C 92.703125 319.371094 91.914062 313.980469 91.78125 308.707031 L 91.761719 308.144531 C 91.625 303.355469 92.152344 298.601562 92.636719 293.839844 L 91.890625 293.734375 C 84.0625 292.636719 76.5625 291.058594 69.027344 288.621094 C 68.421875 288.433594 67.808594 288.265625 67.1875 288.121094 M 119.648438 291.835938 C 112.1875 293.503906 104.832031 293.996094 97.210938 294.125 C 95.210938 305.335938 95.941406 316.429688 99.585938 327.257812 C 99.722656 327.671875 99.847656 328.089844 99.964844 328.511719 C 100.164062 329.214844 100.164062 329.214844 100.644531 330.152344 C 101.425781 330.636719 101.425781 330.636719 102.414062 330.796875 L 102.972656 330.921875 C 103.625 331.058594 104.277344 331.179688 104.933594 331.296875 L 105.699219 331.445312 C 112.007812 332.644531 118.246094 333.136719 124.664062 333.011719 L 124.503906 332.382812 L 124.050781 330.558594 C 123.894531 329.945312 123.742188 329.332031 123.585938 328.722656 C 122.0625 322.671875 120.90625 316.675781 120.898438 310.417969 L 120.894531 309.535156 C 120.894531 308.921875 120.894531 308.304688 120.894531 307.691406 C 120.890625 306.773438 120.886719 305.855469 120.882812 304.9375 C 120.871094 301.453125 121.027344 298.027344 121.394531 294.558594 C 121.5 293.550781 121.542969 292.566406 121.515625 291.550781 C 120.855469 291.550781 120.296875 291.6875 119.648438 291.835938 " fill-opacity="1" fill-rule="nonzero"/><path fill="#ffffff" d="M 72.621094 186.898438 C 73.710938 187.328125 74.554688 187.929688 75.332031 188.800781 C 76.765625 190.871094 77.464844 193.574219 77.769531 196.050781 C 77.816406 197.09375 77.820312 198.132812 77.824219 199.175781 L 77.832031 200.011719 C 77.839844 202.996094 77.839844 202.996094 77.195312 204.339844 C 75.675781 205.734375 73.566406 206.335938 71.65625 207.003906 L 70.792969 207.316406 C 68.707031 208.058594 68.707031 208.058594 68.046875 208.058594 C 69.320312 209.558594 70.652344 210.964844 72.074219 212.324219 C 72.601562 212.894531 72.910156 213.347656 73.195312 214.0625 C 73.320312 214.957031 73.320312 214.957031 73.195312 216.066406 C 72.78125 217.054688 72.289062 217.992188 71.765625 218.925781 C 72.667969 219.953125 73.820312 220.433594 75.027344 221.039062 C 75.789062 221.511719 76.175781 221.871094 76.625 222.640625 C 76.734375 223.660156 76.734375 223.660156 76.625 224.644531 L 76.339844 225.214844 C 75.765625 225.5 75.765625 225.5 74.800781 225.574219 C 73.5625 225.375 72.699219 224.714844 71.710938 223.980469 C 69.953125 222.6875 68.234375 221.839844 66.046875 221.496094 C 63.550781 221.332031 61.257812 221.679688 58.824219 222.210938 L 57.839844 222.417969 C 57.046875 222.585938 56.257812 222.753906 55.464844 222.925781 C 55.101562 222.089844 54.894531 221.546875 54.894531 220.621094 L 55.179688 219.78125 C 56.054688 219.101562 56.054688 219.101562 56.894531 218.636719 L 56.832031 218.035156 C 56.179688 210.859375 57.097656 205.046875 60.011719 198.441406 C 61.378906 195.488281 63.007812 192.757812 65.1875 190.332031 L 65.695312 189.753906 C 67.492188 187.824219 69.914062 186.484375 72.621094 186.898438 M 269.386719 305.160156 C 272.519531 306.902344 275.5625 309.148438 277.925781 311.855469 C 278.304688 312.609375 278.304688 313.3125 278.289062 314.148438 C 278.210938 314.714844 278.210938 314.714844 277.765625 315.429688 C 277.066406 315.855469 277.066406 315.855469 276.085938 316.019531 L 275.066406 315.855469 C 274.40625 315.304688 274.40625 315.304688 274.058594 314.90625 C 271.203125 311.664062 267.347656 309.386719 263.34375 307.851562 C 259.394531 306.574219 255.46875 306.347656 251.332031 306.421875 L 251.511719 306.925781 L 251.742188 307.601562 L 251.976562 308.265625 C 252.980469 311.675781 252.894531 316.019531 252.167969 319.484375 C 251.21875 323.277344 249.292969 326.632812 246.757812 329.582031 C 246.1875 329.867188 246.1875 329.867188 245.382812 329.976562 C 244.46875 329.867188 244.46875 329.867188 243.648438 329.277344 C 243.039062 328.4375 243.039062 328.4375 242.808594 327.542969 C 243.109375 326.105469 243.824219 325.300781 244.707031 324.152344 C 246.5625 321.582031 247.484375 318.679688 247.855469 315.5625 C 248.074219 312.902344 247.574219 310.371094 246.757812 307.851562 C 244.175781 308.5625 241.992188 309.699219 240.074219 311.585938 C 239.453125 312.230469 238.964844 312.820312 238.464844 313.570312 L 237.894531 314.140625 C 236.957031 314.289062 236.488281 314.355469 235.605469 314.140625 C 234.730469 313.550781 234.730469 313.550781 234.175781 312.710938 C 234.070312 311.800781 234.070312 311.800781 234.1875 311.289062 C 234.835938 309.925781 235.976562 308.898438 237.035156 307.851562 L 237.566406 307.304688 C 240.1875 304.777344 243.738281 303.300781 247.222656 302.410156 C 254.789062 300.648438 262.480469 301.667969 269.386719 305.160156 M 139.335938 216.867188 C 147.269531 216.996094 155.636719 218.976562 163.246094 221.121094 L 164.101562 221.359375 L 164.878906 221.589844 L 165.550781 221.789062 C 166.125 222.070312 166.125 222.070312 166.621094 222.609375 C 166.980469 223.214844 166.980469 223.214844 167.125 224.195312 C 166.980469 225.214844 166.980469 225.214844 166.390625 226.074219 L 165.550781 226.644531 C 163.300781 226.519531 161.097656 225.710938 158.9375 225.105469 C 156.960938 224.558594 154.996094 224.109375 152.96875 223.785156 L 153.464844 224.054688 C 155.398438 225.105469 157.332031 226.160156 159.261719 227.214844 L 160.054688 227.652344 C 160.769531 228.042969 161.480469 228.433594 162.191406 228.824219 L 162.847656 229.183594 C 164.34375 230.011719 164.34375 230.011719 164.980469 230.648438 C 165.0625 231.488281 165.113281 232.121094 164.980469 232.933594 C 164.480469 233.632812 164.480469 233.632812 163.835938 234.078125 C 163.308594 234.277344 163.308594 234.277344 162.691406 234.363281 C 160.664062 233.828125 158.789062 232.703125 156.972656 231.683594 L 155.308594 230.765625 L 154.4375 230.28125 C 152.917969 229.445312 151.386719 228.625 149.859375 227.804688 L 147.988281 226.796875 C 146.726562 226.117188 145.460938 225.441406 144.191406 224.765625 L 142.355469 223.785156 L 141.507812 223.339844 C 138.03125 221.472656 138.03125 221.472656 136.957031 220.355469 C 136.675781 219.457031 136.769531 219.03125 136.957031 218.066406 L 137.351562 217.351562 C 138.152344 216.894531 138.441406 216.863281 139.335938 216.867188 " fill-opacity="1" fill-rule="nonzero"/><path fill="#494b48" d="M 115.511719 132 L 116.941406 132.570312 L 116.65625 133.144531 L 114.65625 133.144531 Z M 115.511719 132 " fill-opacity="1" fill-rule="nonzero"/></svg>